<svg width="25" height="24" viewBox="0 0 25 24" fill="none" xmlns="http://www.w3.org/2000/svg">
<path d="M9.01562 22H15.0156C20.0156 22 22.0156 20 22.0156 15V9C22.0156 4 20.0156 2 15.0156 2H9.01562C4.01562 2 2.01562 4 2.01562 9V15C2.01562 20 4.01562 22 9.01562 22Z" stroke="#171717" strokeWidth="1.5" strokeLinecap="round" strokeLinejoin="round"/>
<path d="M15.5859 18.4996V14.5996" stroke="#171717" strokeWidth="1.5" strokeMiterlimit="10" strokeLinecap="round" strokeLinejoin="round"/>
<path d="M15.5859 7.45V5.5" stroke="#171717" strokeWidth="1.5" strokeMiterlimit="10" strokeLinecap="round" strokeLinejoin="round"/>
<path d="M15.5844 12.6492C17.0203 12.6492 18.1844 11.4852 18.1844 10.0492C18.1844 8.61328 17.0203 7.44922 15.5844 7.44922C14.1484 7.44922 12.9844 8.61328 12.9844 10.0492C12.9844 11.4852 14.1484 12.6492 15.5844 12.6492Z" stroke="#171717" strokeWidth="1.5" strokeMiterlimit="10" strokeLinecap="round" strokeLinejoin="round"/>
<path d="M8.44531 18.5008V16.5508" stroke="#171717" strokeWidth="1.5" strokeMiterlimit="10" strokeLinecap="round" strokeLinejoin="round"/>
<path d="M8.44531 9.4V5.5" stroke="#171717" strokeWidth="1.5" strokeMiterlimit="10" strokeLinecap="round" strokeLinejoin="round"/>
<path d="M8.44375 16.5496C9.87969 16.5496 11.0437 15.3855 11.0437 13.9496C11.0437 12.5137 9.87969 11.3496 8.44375 11.3496C7.00781 11.3496 5.84375 12.5137 5.84375 13.9496C5.84375 15.3855 7.00781 16.5496 8.44375 16.5496Z" stroke="#171717" strokeWidth="1.5" strokeMiterlimit="10" strokeLinecap="round" strokeLinejoin="round"/>
</svg>
