<svg width="40" height="40" viewBox="0 0 40 40" fill="none" xmlns="http://www.w3.org/2000/svg">
<path d="M39.4016 24.8381C36.7301 35.5525 25.877 42.0731 15.1601 39.4012C4.44772 36.7301 -2.07358 25.8775 0.599038 15.1639C3.26931 4.44838 14.1225 -2.07268 24.836 0.598468C35.5521 3.26961 42.073 14.1234 39.4013 24.8383L39.4015 24.8381H39.4016Z" fill="#F7931A"/>
<path fill-rule="evenodd" clip-rule="evenodd" d="M28.8219 17.1506C29.22 14.489 27.1934 13.0583 24.4222 12.1039L25.3212 8.49857L23.1263 7.95171L22.2512 11.4621C21.6741 11.3182 21.0816 11.1826 20.4926 11.0482L21.3741 7.51463L19.1805 6.96777L18.2811 10.5719C17.8036 10.4632 17.3346 10.3558 16.8795 10.2426L16.8821 10.2312L13.8552 9.47547L13.2714 11.8195C13.2714 11.8195 14.8998 12.1928 14.8655 12.2157C15.7543 12.4375 15.9151 13.0258 15.8884 13.4922L14.8643 17.5995C14.9255 17.615 15.0049 17.6375 15.0925 17.6727L15.0289 17.6568L15.0288 17.6568C14.9746 17.6432 14.9183 17.6291 14.8605 17.6153L13.4252 23.3691C13.3165 23.6391 13.0408 24.0443 12.4194 23.8904C12.4414 23.9223 10.8241 23.4923 10.8241 23.4923L9.73438 26.0045L12.5907 26.7165C12.9035 26.7949 13.2126 26.8755 13.5186 26.9552L13.5188 26.9553C13.7325 27.011 13.9447 27.0663 14.1556 27.1202L13.2473 30.7669L15.4397 31.3138L16.3392 27.7058C16.9381 27.8684 17.5193 28.0183 18.0884 28.1597L17.1919 31.7506L19.3869 32.2975L20.2951 28.6577C24.0379 29.3659 26.8522 29.0804 28.0368 25.6954C28.9913 22.9701 27.9893 21.3982 26.0202 20.3731C27.4544 20.0423 28.5346 19.0992 28.8226 17.1509L28.822 17.1504L28.8219 17.1506ZM23.807 24.1819C23.1846 26.6823 19.2704 25.6486 17.4795 25.1756L17.4795 25.1756C17.3184 25.1331 17.1745 25.0951 17.0517 25.0646L18.257 20.2334C18.4067 20.2707 18.5895 20.3118 18.7967 20.3582C20.6492 20.7739 24.4446 21.6256 23.8071 24.1819H23.807ZM19.1683 18.116C20.6614 18.5144 23.9185 19.3836 24.4858 17.1111H24.486C25.0652 14.7868 21.8998 14.0861 20.3538 13.7439C20.1799 13.7054 20.0265 13.6714 19.9012 13.6402L18.8084 18.0218C18.9116 18.0475 19.0327 18.0798 19.1683 18.116Z" fill="white"/>
</svg>
