<svg width="27" height="27" viewBox="0 0 27 27" fill="none" xmlns="http://www.w3.org/2000/svg">
<path d="M3.9375 24.75V5.625C3.9375 3.375 5.445 2.25 7.3125 2.25H16.3125C18.18 2.25 19.6875 3.375 19.6875 5.625V24.75H3.9375Z" stroke="#1DD59A" stroke-width="2" stroke-linecap="round" stroke-linejoin="round"/>
<path d="M2.25 24.75H21.375" stroke="#1DD59A" stroke-width="2" stroke-linecap="round" stroke-linejoin="round"/>
<path d="M9.43875 11.25H14.1975C15.3675 11.25 16.3237 10.6875 16.3237 9.12376V7.74002C16.3237 6.17627 15.3675 5.61377 14.1975 5.61377H9.43875C8.26875 5.61377 7.3125 6.17627 7.3125 7.74002V9.12376C7.3125 10.6875 8.26875 11.25 9.43875 11.25Z" stroke="#1DD59A" stroke-width="2" stroke-linecap="round" stroke-linejoin="round"/>
<path d="M7.3125 14.625H10.6875" stroke="#1DD59A" stroke-width="2" stroke-linecap="round" stroke-linejoin="round"/>
<path d="M19.6875 18.0112L24.75 18V11.25L22.5 10.125" stroke="#1DD59A" stroke-width="2" stroke-linecap="round" stroke-linejoin="round"/>
</svg>
