<svg width="42" height="45" viewBox="0 0 42 45" fill="none" xmlns="http://www.w3.org/2000/svg">
<path d="M31.0797 31.2173L25.5873 29.6151L21.445 32.0404H18.555L14.4098 29.6151L8.92025 31.2159L7.25 25.6952L8.92025 19.5652L7.25 14.3817L8.92025 7.9585L17.4996 12.9792H22.5004L31.0797 7.9585L32.75 14.3817L31.0797 19.5638L32.75 25.6952L31.0797 31.2173Z" fill="#FF5C16"/>
<path d="M8.92188 7.9585L17.4998 12.9834L17.1598 16.4316L8.92188 7.9585ZM14.4115 25.6952L18.1869 28.5143L14.4115 29.6151V25.6952ZM17.8851 21.04L17.1598 16.4344L12.516 19.5652H12.5131V19.5667L12.5273 22.7896L14.4115 21.04H17.8851ZM31.0785 7.9585L22.4992 12.9834L22.8392 16.4316L31.0785 7.9585ZM25.589 25.6952L21.8135 28.5143L25.589 29.6151V25.6952ZM27.4859 19.5667L22.8406 16.4358L22.1153 21.04H25.5875L27.4717 22.791L27.4859 19.5667Z" fill="#FF5C16"/>
<path d="M14.4098 29.6151L8.92025 31.2159L7.25 25.698H14.4098V29.6151ZM17.8835 21.0386L18.9318 27.6969L17.4783 23.9937L12.5243 22.7896L14.4084 21.0386H17.8835ZM25.5902 29.6151L31.0797 31.2159L32.75 25.698H25.5887L25.5902 29.6151ZM22.1165 21.0386L21.0682 27.6969L22.5217 23.9937L27.4757 22.7896L25.5902 21.0386H22.1165Z" fill="#E34807"/>
<path d="M7.25 25.695L8.92025 19.5637H12.5115L12.5257 22.788L17.4783 23.9922L18.9318 27.6939L18.1852 28.5099L14.4098 25.6922H7.25V25.695ZM32.75 25.695L31.0797 19.5637H27.4885L27.4743 22.788L22.5217 23.9922L21.0682 27.6939L21.8147 28.5099L25.5902 25.6922H32.75V25.695ZM22.5004 12.979H17.4996L17.1596 16.4286L18.9318 27.6911H21.0682L22.8418 16.4286L22.5004 12.979Z" fill="#FF8D5D"/>
<path d="M8.92025 7.9585L7.25 14.3817L8.92025 19.5638H12.5115L17.1582 16.4316L8.92025 7.9585ZM16.8451 22.3759H15.2188L14.3319 23.2259L17.4797 23.9909L16.8451 22.3759ZM31.0797 7.9585L32.75 14.3817L31.0797 19.5638H27.4885L22.8418 16.4316L31.0797 7.9585ZM23.1563 22.3759H24.7855L25.6723 23.2259L22.5217 23.9923L23.1563 22.3759ZM21.4436 29.8432L21.8147 28.5115L21.0682 27.6969H18.9304L18.1838 28.5115L18.555 29.8432" fill="#661800"/>
<path d="M21.4447 29.8433V32.0419H18.5547V29.8433H21.4447Z" fill="#C0C4CD"/>
<path d="M14.4102 29.6124L18.5567 32.0406V29.8419L18.1856 28.5103L14.4102 29.6124ZM25.5877 29.6124L21.4439 32.042V29.8433L21.8151 28.5117L25.5877 29.6124Z" fill="#E7EBF6"/>
<circle cx="32" cy="35" r="10" fill="#414141"/>
<path fill-rule="evenodd" clip-rule="evenodd" d="M35.8394 33.7156C36.0237 32.4831 35.0852 31.8205 33.8019 31.3785L34.2182 29.7089L33.2018 29.4557L32.7965 31.0813C32.5293 31.0147 32.2549 30.9519 31.9821 30.8896L32.3903 29.2532L31.3745 29L30.958 30.6691C30.7368 30.6187 30.5196 30.569 30.3089 30.5166L30.3101 30.5113L28.9084 30.1613L28.638 31.2468C28.638 31.2468 29.3921 31.4197 29.3762 31.4303C29.7878 31.533 29.8623 31.8055 29.8499 32.0214L29.3757 33.9235C29.404 33.9307 29.4408 33.9411 29.4813 33.9574L29.4518 33.95C29.4267 33.9438 29.4007 33.9373 29.3739 33.9308L28.7092 36.5954C28.6589 36.7204 28.5312 36.9081 28.2434 36.8368C28.2536 36.8516 27.5047 36.6525 27.5047 36.6525L27 37.8159L28.3228 38.1456C28.4676 38.1819 28.6107 38.2192 28.7524 38.2561L28.7529 38.2563C28.8517 38.282 28.9499 38.3076 29.0475 38.3326L28.6268 40.0213L29.6421 40.2746L30.0587 38.6037C30.336 38.679 30.6052 38.7485 30.8687 38.8139L30.4536 40.4769L31.4701 40.7301L31.8906 39.0445C33.6239 39.3725 34.9272 39.2403 35.4758 37.6727C35.9178 36.4106 35.4538 35.6827 34.5419 35.208C35.2061 35.0548 35.7063 34.618 35.8397 33.7158L35.8394 33.7155L35.8394 33.7156ZM33.517 36.9718C33.2288 38.1298 31.4161 37.651 30.5868 37.432C30.5122 37.4123 30.4455 37.3947 30.3887 37.3806L30.9468 35.1433C31.0161 35.1606 31.1008 35.1796 31.1968 35.2011L31.1968 35.2011C32.0546 35.3936 33.8123 35.788 33.5171 36.9718H33.517ZM31.3689 34.1627C32.0603 34.3472 33.5687 34.7497 33.8314 33.6973H33.8315C34.0998 32.621 32.6339 32.2965 31.9179 32.138C31.8374 32.1201 31.7663 32.1044 31.7083 32.09L31.2022 34.1191C31.25 34.131 31.3061 34.1459 31.3689 34.1627Z" fill="white"/>
</svg>
