<svg width="14" height="14" viewBox="0 0 14 14" fill="none" xmlns="http://www.w3.org/2000/svg">
<g clip-path="url(#clip0_2452_5435)">
<path d="M0 7C0 3.13401 3.13401 0 7 0C10.866 0 14 3.13401 14 7C14 10.866 10.866 14 7 14C3.13401 14 0 10.866 0 7Z" fill="#E6FA36"/>
<path d="M8.40935 2.10559C8.64473 2.25784 8.79435 2.48972 8.87048 2.73734C9.05817 3.34897 8.95448 3.95097 8.83985 4.62034C8.78429 4.94234 8.7261 5.28053 8.69679 5.64234C8.60842 6.72865 9.00042 8.05078 9.82335 8.72409C10.4061 9.20097 11.205 9.35278 12.2025 8.86409C12.9751 8.48609 13.5793 7.4969 13.8365 6.57859C13.8847 6.40709 13.917 6.22903 13.9359 6.04747V6.04965C13.8398 5.33868 13.6344 4.64684 13.3269 3.99865L13.3255 3.9969C13.3623 4.20734 13.3868 4.44184 13.4025 4.7144C13.4445 5.4284 13.179 6.54403 12.7345 7.15565C12.3245 7.72003 11.3988 8.25247 10.5172 7.78259C10.4962 7.77132 10.4758 7.75906 10.456 7.74584C10.0102 7.44834 9.57792 6.49722 10.1117 4.59365C10.4135 3.51697 10.5584 2.30553 9.81635 1.27828C9.66522 1.06896 9.47688 0.889221 9.26073 0.748028C8.62942 0.334153 7.80123 0.260653 7.06185 0.462341C5.8281 0.799216 5.14342 1.77309 4.86298 2.98059C4.66348 3.83897 4.79648 4.70828 5.13773 5.53034C5.36785 6.08465 5.62773 6.48847 5.8596 6.84984C6.21704 7.40547 6.50885 7.85915 6.5246 8.59984L6.52548 8.68122C6.52985 9.00934 6.53729 9.50809 6.81335 9.68397C6.89079 9.73297 6.98879 9.75703 7.11392 9.74522C7.69273 9.69009 7.62142 9.03297 7.49498 8.62565C7.37292 8.23103 7.12748 7.87447 6.84398 7.46147C6.67335 7.21384 6.4896 6.94565 6.30935 6.63722C5.9506 6.02165 5.7126 5.57059 5.66185 4.88284C5.61277 4.13475 5.80891 3.39105 6.22054 2.76447C6.60642 2.18565 7.43635 1.63922 8.28423 2.03647C8.32842 2.05703 8.37042 2.08022 8.40935 2.10559Z" fill="black"/>
<path fill-rule="evenodd" clip-rule="evenodd" d="M0.277375 7.43532C0.245875 7.54863 0.2205 7.66501 0.201687 7.78313L0 7.00001C0 7.51057 0.055125 8.00844 0.158813 8.48838C0.305375 9.16301 0.548188 9.80132 0.87325 10.3876C0.854811 10.3245 0.838324 10.2609 0.823812 10.1968L0.825562 10.2025C0.84 10.2659 0.85575 10.3276 0.87325 10.3876L0.825562 10.2025C0.767812 9.94526 0.732375 9.65432 0.711375 9.29863C0.708874 9.25638 0.707415 9.21408 0.707 9.17176C0.700875 8.45863 0.96075 7.43488 1.37944 6.85869C1.78938 6.29432 2.71469 5.76188 3.59669 6.23176C3.91212 6.40019 4.24288 6.89019 4.24988 7.80894C4.25294 8.24557 4.1825 8.77888 4.00269 9.42026C3.91735 9.71706 3.85158 10.0191 3.80581 10.3246C3.68769 11.1444 3.75769 11.9893 4.29844 12.7365C4.92275 13.6006 6.06506 13.8215 7.05163 13.552C8.28537 13.2147 8.96962 12.2408 9.2505 11.0333C9.31748 10.7435 9.34863 10.4465 9.34325 10.1491C9.3345 9.58476 9.20019 9.02344 8.97575 8.48313C8.74563 7.92882 8.48575 7.52501 8.25387 7.16363C7.89644 6.60801 7.60506 6.15432 7.58888 5.41363V5.41057L7.588 5.33269C7.58537 5.14326 7.58187 4.89607 7.52588 4.68738C7.45806 4.43494 7.31325 4.23851 7 4.26869C6.63469 4.30369 6.52838 4.57801 6.53188 4.87857C6.53319 5.05401 6.57256 5.23863 6.61894 5.38869C6.741 5.78332 6.98644 6.13988 7.26994 6.55244C7.44056 6.80051 7.62475 7.06869 7.80456 7.37757C8.16331 7.99313 8.40131 8.44376 8.45206 9.13194C8.50176 9.87996 8.30557 10.6237 7.89337 11.2499C7.5075 11.8283 6.67712 12.3743 5.82925 11.9774C5.52038 11.8326 5.33138 11.5653 5.243 11.2761C5.20797 11.1623 5.18193 11.0458 5.16512 10.9279C5.09512 10.4335 5.18044 9.93563 5.27362 9.39401C5.32875 9.07157 5.38694 8.73338 5.41625 8.37157C5.4251 8.26184 5.42919 8.15178 5.4285 8.04169C5.41844 6.23351 4.17725 4.04032 1.911 5.14982C1.13881 5.52782 0.534625 6.51701 0.277375 7.43532Z" fill="black"/>
</g>
<defs>
<clipPath id="clip0_2452_5435">
<rect width="14" height="14" fill="white"/>
</clipPath>
</defs>
</svg>
